# xmcd
#
# Track frame offsets:
#	150
#	21818
#	36485
#	48458
#	65470
#	87781
#	103705
#	127826
#	152244
#	173002
#	199814
#	213489
#	228572
#	258879
#	279205
#	295870
#	314381
#
# Disc length: 4425 seconds
#
# Revision: 0
# Processed by: cddbd v1.5.2PL0 Copyright (c) Steve Scherf et al.
# Submitted via: EasyCDDAExtractor 15.3.0.1
#
DISCID=ed114711
DTITLE=Various Artist - From The Delta To Today CD 2
DYEAR=1900
DGENRE=Blues
TTITLE0=Taj Mahal - Leaving Trunk
TTITLE1=Chicken Shack -  I'd Rather Go Blind
TTITLE2=Fleetwood Mac - Coming Home
TTITLE3=Johnny Winter - I Love Everybody
TTITLE4=Willie Dixon - Spoonful
TTITLE5=Mike Bloomfield - Don't Think About It Baby
TTITLE6=Rory Gallagher - Calling Card
TTITLE7=Muddy Waters - Mannish Boy
TTITLE8=Stevie Ray Vaughn and Double Trouble - The Sky Is Cryin'
TTITLE9=Santana - Blues For Salvador
TTITLE10=Jeff Beck - The Stumble
TTITLE11=The Fabulous Thunderbirds - Tuff Enuff
TTITLE12=The Allman Brothers Band - Gambler's Roll
TTITLE13=Buddy Guy - Damn Right I've Got The Blues
TTITLE14=Chris Whitley - Living With The Law
TTITLE15=Keb' Mo' - That's Not Love
TTITLE16=The Derek Trucks Band - Crow Jane
EXTD=
EXTT0=
EXTT1=
EXTT2=
EXTT3=
EXTT4=
EXTT5=
EXTT6=
EXTT7=
EXTT8=
EXTT9=
EXTT10=
EXTT11=
EXTT12=
EXTT13=
EXTT14=
EXTT15=
EXTT16=
PLAYORDER=
